<svg width="49" height="49" viewBox="0 0 49 49" fill="none" xmlns="http://www.w3.org/2000/svg">
<path d="M24.5008 26.402L16.6104 18.513L12.7216 22.402L24.5008 34.1816L36.2784 22.402L32.3896 18.513L24.5008 26.402Z" fill="#333333"/>
<path d="M24.5007 0C10.9682 0.000653333 0.00147 10.9678 0 24.4992C0.00147 38.0322 10.9682 48.9984 24.5007 49C38.0318 48.9984 48.9984 38.0322 49 24.4992C48.9984 10.9678 38.0318 0.000653333 24.5007 0ZM39.1029 39.1028C35.36 42.844 30.2092 45.151 24.5007 45.1519C18.7916 45.151 13.64 42.844 9.89702 39.1028C6.15636 35.3592 3.84895 30.2085 3.84821 24.4992C3.84895 18.7907 6.15636 13.64 9.89702 9.89636C13.64 6.15636 18.7916 3.84887 24.5007 3.84821C30.2092 3.84887 35.36 6.15636 39.1029 9.89636C42.8436 13.64 45.1511 18.7907 45.1518 24.4992C45.1511 30.2085 42.8428 35.3592 39.1029 39.1028Z" fill="#333333"/>
</svg>
