<svg width="179" height="200" viewBox="0 0 179 200" fill="none" xmlns="http://www.w3.org/2000/svg">
<path d="M161.424 180.554L89.062 200L16.6985 180.554L0 0H178.125L161.424 180.554Z" fill="#2062AF"/>
<path d="M89.0614 14.6246V184.49L89.225 184.535L147.785 168.797L161.302 14.6246H89.0614Z" fill="#3C9CD7"/>
<path d="M88.9971 59.7703L37.205 81.2983L38.9225 102.613L88.9971 81.2442L142.264 58.5147L144.472 36.7109L88.9971 59.7703Z" fill="white"/>
<path d="M37.2044 81.2983L38.922 102.613L88.9966 81.2442V59.7702L37.2044 81.2983Z" fill="url(#paint0_linear)"/>
<path d="M144.472 36.7115L88.9972 59.7703V81.2442L142.264 58.5147L144.472 36.7115Z" fill="url(#paint1_linear)"/>
<path d="M37.2841 81.2983L39.0022 102.613L115.835 102.857L114.117 131.276L88.8341 138.38L64.5301 132.255L63.0575 114.616H40.4748L43.4207 148.669L89.0795 162.143L134.491 148.914L140.382 81.2983H37.2841Z" fill="url(#paint2_linear)"/>
<path opacity="0.05" d="M88.9972 81.2983H37.205L38.9225 102.613L88.9972 102.772V81.2983ZM88.9972 138.312L88.7517 138.38L64.451 132.256L62.9783 114.616H40.3962L43.3415 148.67L88.9972 162.144V138.312Z" fill="black"/>
<path d="M32.5405 36.7115H144.472L142.264 58.5152H35.2404L32.5405 36.7115Z" fill="url(#paint3_linear)"/>
<path opacity="0.05" d="M88.9972 37.7461H32.5405L35.2404 59.5499H88.9972V37.7461Z" fill="black"/>
<defs>
<linearGradient id="paint0_linear" x1="63.1005" y1="102.613" x2="63.1005" y2="59.7708" gradientUnits="userSpaceOnUse">
<stop offset="0.387" stop-color="#D1D3D4" stop-opacity="0"/>
<stop offset="1" stop-color="#D1D3D4"/>
</linearGradient>
<linearGradient id="paint1_linear" x1="116.734" y1="81.2447" x2="116.734" y2="36.712" gradientUnits="userSpaceOnUse">
<stop offset="0.387" stop-color="#D1D3D4" stop-opacity="0"/>
<stop offset="1" stop-color="#D1D3D4"/>
</linearGradient>
<linearGradient id="paint2_linear" x1="37.2841" y1="121.721" x2="140.382" y2="121.721" gradientUnits="userSpaceOnUse">
<stop stop-color="#E8E7E5"/>
<stop offset="1" stop-color="white"/>
</linearGradient>
<linearGradient id="paint3_linear" x1="32.5405" y1="47.6133" x2="144.471" y2="47.6133" gradientUnits="userSpaceOnUse">
<stop stop-color="#E8E7E5"/>
<stop offset="1" stop-color="white"/>
</linearGradient>
</defs>
</svg>
