<svg width="177" height="200" viewBox="0 0 177 200" fill="none" xmlns="http://www.w3.org/2000/svg">
<path d="M176.98 0L160.857 179.979L88.3818 200L16.1066 180.007L0 0H176.98Z" fill="#E44D26"/>
<path d="M88.49 184.697L147.054 168.519L160.831 14.7178H88.49V184.697Z" fill="#F16529"/>
<path d="M57.1468 58.8728H88.49V36.7957H32.9332L33.4632 42.7185L38.909 103.557H88.49V81.4801H59.1718L57.1468 58.8728ZM62.1403 114.596H39.899L43.0028 149.261L88.388 161.814L88.49 161.786V138.817L88.3929 138.842L63.7179 132.204L62.1403 114.596Z" fill="#EBEBEB"/>
<path d="M88.4137 103.557H115.696L113.124 132.19L88.413 138.836V161.804L133.834 149.261L134.167 145.531L139.374 87.4085L139.915 81.4801H88.4137V103.557ZM88.4137 58.8189V58.8728H141.931L142.375 53.9108L143.385 42.7185L143.914 36.7957H88.4137V58.8196V58.8189Z" fill="white"/>
</svg>
