<svg width="240" height="103" viewBox="0 0 240 103" fill="none" xmlns="http://www.w3.org/2000/svg">
<g clip-path="url(#clip0)">
<path d="M240 89.505C240 96.8675 234.032 102.836 226.669 102.836H13.331C5.96846 102.836 0 96.8675 0 89.505V13.331C0 5.96846 5.96846 0 13.331 0H226.669C234.032 0 240 5.96846 240 13.331V89.505Z" fill="#092E20"/>
<path d="M41.395 16.149H52.7606V68.7568C46.9302 69.8637 42.6495 70.3065 38.0004 70.3065C24.1257 70.3065 16.8932 64.0343 16.8932 52.0036C16.8932 40.4171 24.5689 32.8894 36.4506 32.8894C38.2955 32.8894 39.6977 33.0374 41.3955 33.4793V16.149H41.395ZM41.395 42.63C40.0667 42.1877 38.9597 42.0401 37.5576 42.0401C31.801 42.0401 28.4797 45.5828 28.4797 51.7812C28.4797 57.834 31.6534 61.1548 37.4838 61.1548C38.7378 61.1548 39.7715 61.081 41.395 60.8606V42.63Z" fill="white"/>
<path d="M70.8412 33.7002V60.0483C70.8412 69.1253 70.177 73.4792 68.1845 77.2438C66.3391 80.8603 63.9034 83.147 58.8852 85.6566L48.3314 80.638C53.35 78.2765 55.7853 76.2116 57.335 73.0365C58.959 69.7899 59.476 66.0249 59.476 56.1357V33.7002H70.8412ZM59.476 16.2095H70.8412V27.8707H59.476V16.2095Z" fill="white"/>
<path d="M77.7061 36.2835C82.7252 33.9216 87.522 32.8889 92.762 32.8889C98.5924 32.8889 102.43 34.4386 104.128 37.4648C105.086 39.1616 105.382 41.3755 105.382 46.0999V69.1991C100.289 69.938 93.8685 70.4541 89.1455 70.4541C79.6253 70.4541 75.3442 67.1323 75.3442 59.7532C75.3442 51.7813 81.027 48.0919 94.9759 46.9102V44.4007C94.9759 42.3349 93.9428 41.5974 91.0642 41.5974C86.8578 41.5974 82.1344 42.7776 77.7057 45.0658V36.2835H77.7061ZM95.4925 54.3651C87.9643 55.104 85.529 56.2843 85.529 59.2361C85.529 61.45 86.9316 62.4836 90.0311 62.4836C91.7289 62.4836 93.2781 62.3356 95.4925 61.9675V54.3651Z" fill="white"/>
<path d="M110.917 35.4723C117.633 33.7002 123.168 32.8889 128.777 32.8889C134.607 32.8889 138.814 34.2163 141.324 36.8006C143.686 39.2349 144.423 41.8916 144.423 47.5758V69.8637H133.058V48.0181C133.058 43.6641 131.582 42.0397 127.523 42.0397C125.974 42.0397 124.572 42.1877 122.283 42.8519V69.8633H110.918V35.4723H110.917Z" fill="white"/>
<path d="M148.842 76.0631C152.827 78.1289 156.812 79.0883 161.019 79.0883C168.472 79.0883 171.646 76.0631 171.646 68.8301C171.646 68.7568 171.646 68.6825 171.646 68.6077C169.432 69.7152 167.218 70.1584 164.266 70.1584C154.303 70.1584 147.955 63.5896 147.955 53.1843C147.955 40.2685 157.329 32.9627 173.933 32.9627C178.805 32.9627 183.307 33.4788 188.768 34.5848L184.877 42.7843C181.85 42.1934 184.634 42.7047 182.347 42.4834V43.6641L182.495 48.4604L182.568 54.6602C182.642 56.209 182.642 57.7597 182.716 59.3089C182.716 60.7111 182.716 61.3762 182.716 62.4093C182.716 72.1514 181.904 76.7272 179.469 80.4904C175.926 86.0261 169.801 88.7565 161.092 88.7565C156.664 88.7565 152.827 88.0919 148.841 86.5422V76.0631H148.842ZM171.425 42.1139C171.278 42.1139 171.13 42.1139 171.057 42.1139H170.244C168.031 42.0401 165.448 42.63 163.676 43.7369C160.946 45.2876 159.543 48.0914 159.543 52.0774C159.543 57.7606 162.348 61.0072 167.366 61.0072C168.916 61.0072 170.171 60.712 171.646 60.2692V59.4575V56.358C171.646 55.0297 171.573 53.5528 171.573 52.0036L171.5 46.7635L171.426 42.9999V42.1139H171.425Z" fill="white"/>
<path d="M206.412 32.7418C217.777 32.7418 224.715 39.901 224.715 51.4865C224.715 63.3687 217.483 70.8226 205.969 70.8226C194.603 70.8226 187.592 63.6639 187.592 52.1516C187.593 40.1947 194.826 32.7418 206.412 32.7418ZM206.19 61.6714C210.545 61.6714 213.128 58.0549 213.128 51.7812C213.128 45.5828 210.619 41.892 206.265 41.892C201.763 41.892 199.179 45.5095 199.179 51.7812C199.179 58.0553 201.763 61.6714 206.19 61.6714Z" fill="white"/>
</g>
<defs>
<clipPath id="clip0">
<rect width="240" height="102.836" fill="white"/>
</clipPath>
</defs>
</svg>
